<svg width="24" height="24" viewBox="0 0 24 24" fill="none" xmlns="http://www.w3.org/2000/svg">
<path d="M13.2269 24H12.1147C11.9865 23.898 12.0051 23.7497 12.0039 23.6126C11.9983 22.9668 12.0014 22.3203 12.0014 21.6738C12.0014 20.3584 12.0002 19.0423 12.002 17.7268C12.002 17.5722 11.9878 17.4151 12.0398 17.2643C12.0738 17.1147 12.1934 17.1085 12.311 17.1016C12.9644 17.0615 13.5935 16.9226 14.1918 16.6479C15.1473 16.2085 15.8997 15.5383 16.4366 14.6265C16.9735 13.7146 17.2113 12.7227 17.1383 11.6688C17.0627 10.5824 16.6881 9.60301 15.9908 8.76128C15.0352 7.6079 13.7985 7.02463 12.3259 6.92325C12.2113 6.91511 12.0862 6.92325 12.0441 6.77305C11.994 6.64601 12.0014 6.51208 12.0014 6.38066C11.9995 4.41121 11.9995 2.44112 12.0014 0.471669C12.0014 0.340872 11.9878 0.206321 12.0466 0.0817829C12.0813 0.00418125 12.1488 -0.00207694 12.2212 0.000426335C12.5835 0.0123169 12.947 0.0198268 13.3081 0.0141944C14.1589 -0.000199483 15.1194 1.06369 15.1393 1.97677C15.1566 2.77406 15.0959 2.59257 15.7734 2.8767C15.9301 2.94241 16.0929 2.99623 16.2397 3.08259C16.4317 3.19586 16.5884 3.15957 16.7326 2.9956C17.0218 2.66579 17.3792 2.43049 17.799 2.32535C18.497 2.15074 19.1757 2.22021 19.7597 2.6733C20.3362 3.12014 20.8452 3.64833 21.3029 4.2172C21.9928 5.07583 21.9525 6.4276 21.1084 7.27058C20.8242 7.5547 20.8304 7.55783 20.984 7.91705C21.0787 8.13922 21.1772 8.35951 21.2589 8.58668C21.3871 8.94089 21.3945 8.95591 21.7779 8.9459C22.2671 8.93276 22.7074 9.0623 23.1037 9.35143C23.6896 9.77949 24.0184 10.3396 23.9992 11.0881C23.9812 11.7971 24.0153 12.5068 23.9788 13.2165C23.9466 13.8423 23.6047 14.2741 23.1483 14.6359C22.752 14.9506 22.2956 15.0902 21.7878 15.0764C21.3914 15.0658 21.3921 15.0771 21.254 15.4482C21.1586 15.7035 21.057 15.957 20.9369 16.2017C20.8477 16.3831 20.8737 16.5271 21.0186 16.6629C21.2583 16.8882 21.4627 17.1435 21.5865 17.4514C21.9463 18.3495 21.8299 19.1931 21.2106 19.9247C20.7907 20.4209 20.3312 20.8884 19.8259 21.3021C19.0035 21.9761 17.6492 21.9573 16.8379 21.1337C16.789 21.0837 16.7376 21.0367 16.6893 20.986C16.5723 20.8646 16.4428 20.839 16.2905 20.9166C16.0007 21.0643 15.6985 21.1844 15.3919 21.2902C15.2092 21.3534 15.1368 21.4729 15.1436 21.6607C15.1547 21.9736 15.1399 22.2834 15.0265 22.5825C14.8104 23.1545 14.4296 23.5801 13.897 23.8611C13.6914 23.97 13.4493 23.9499 13.2251 23.9981L13.2269 24Z" fill="#8B00D6"/>
<path d="M11.9994 17.2302C11.9994 19.4868 11.9981 21.7434 11.9975 24H10.9195C10.553 23.9462 10.1872 23.9105 9.87462 23.6647C9.29394 23.2086 8.96508 22.628 8.93439 21.8892C8.91559 21.4368 9.02271 21.3893 8.4389 21.1953C8.23908 21.129 8.04677 21.0396 7.85948 20.9438C7.64086 20.8325 7.46923 20.8656 7.29885 21.0508C6.97875 21.398 6.57911 21.622 6.11557 21.7202C5.24988 21.9029 4.5101 21.6514 3.88996 21.0402C3.50723 20.6629 3.11448 20.2951 2.76557 19.8834C2.02203 19.0063 2.04207 17.6581 2.83573 16.826C3.23412 16.4087 3.17774 16.4782 2.97729 15.9814C2.90714 15.8081 2.83134 15.6373 2.76807 15.4609C2.63716 15.0981 2.61335 15.0749 2.23062 15.0793C1.58793 15.0868 1.04484 14.8566 0.583181 14.4168C0.228637 14.0795 0.0231769 13.6766 0.0231769 13.1799C0.0231769 13.1486 0.0231769 13.118 0 13.0929V10.9396C0.0494858 10.8695 0.0238033 10.7875 0.0281881 10.7125C0.0920812 9.69395 1.21773 8.98387 2.02391 8.95822C2.64781 8.9382 2.60145 9.03204 2.83635 8.39141C2.90588 8.20122 2.98544 8.01353 3.07376 7.83148C3.16835 7.63754 3.13139 7.49052 2.97729 7.35288C2.76557 7.16332 2.60396 6.93434 2.47554 6.68159C2.04771 5.84201 2.16234 4.86166 2.77497 4.14408C3.21595 3.62669 3.6964 3.14684 4.22008 2.71328C4.90223 2.14897 6.03727 2.1033 6.81902 2.59379C6.99817 2.7064 7.17106 2.82715 7.31075 2.9873C7.45795 3.15685 7.61393 3.19814 7.82816 3.09429C8.0806 2.97229 8.34243 2.86844 8.60803 2.77522C8.89805 2.67262 8.93814 2.62132 8.93125 2.31351C8.91497 1.63597 9.15175 1.0654 9.62405 0.584298C10.0043 0.197039 10.4666 0.00810225 11.0034 0.011856C11.3354 0.0143584 11.6693 -0.0306862 11.9987 0.0400089C11.9987 2.29412 12 4.54823 12 6.80233C11.9612 6.95061 11.834 6.92308 11.7313 6.92871C10.7973 6.97876 9.94039 7.25591 9.16553 7.78268C7.93903 8.61601 7.18484 9.76152 6.96372 11.2248C6.73383 12.7451 7.09965 14.1208 8.10753 15.3014C9.05716 16.4137 10.2692 17.0112 11.7313 17.1032C11.8334 17.1094 11.9612 17.0813 12 17.2295L11.9994 17.2302Z" fill="#AE00BD"/>
</svg>
