<svg width="35" height="36" viewBox="0 0 35 36" fill="none" xmlns="http://www.w3.org/2000/svg">
<path d="M23.5156 16.9062C23.5156 18.096 23.1628 19.2591 22.5018 20.2484C21.8408 21.2376 20.9013 22.0087 19.8021 22.464C18.7029 22.9193 17.4933 23.0384 16.3264 22.8063C15.1595 22.5742 14.0876 22.0012 13.2463 21.1599C12.405 20.3186 11.8321 19.2468 11.6 18.0798C11.3679 16.9129 11.487 15.7034 11.9423 14.6042C12.3976 13.505 13.1686 12.5654 14.1579 11.9044C15.1472 11.2434 16.3102 10.8906 17.5 10.8906C19.0949 10.8924 20.6239 11.5268 21.7517 12.6546C22.8795 13.7823 23.5138 15.3114 23.5156 16.9062ZM31.7188 18C31.7188 20.8122 30.8848 23.5613 29.3225 25.8995C27.7601 28.2378 25.5394 30.0602 22.9413 31.1364C20.3431 32.2126 17.4842 32.4942 14.7261 31.9455C11.9679 31.3969 9.43436 30.0427 7.44583 28.0542C5.4573 26.0656 4.1031 23.5321 3.55447 20.7739C3.00583 18.0158 3.28741 15.1569 4.36359 12.5587C5.43978 9.96058 7.26223 7.73992 9.60049 6.17754C11.9388 4.61517 14.6878 3.78125 17.5 3.78125C21.2698 3.78523 24.8841 5.28455 27.5498 7.95022C30.2155 10.6159 31.7148 14.2302 31.7188 18ZM29.5313 18C29.5295 16.3806 29.2012 14.7782 28.5659 13.2886C27.9307 11.799 27.0016 10.4528 25.8341 9.33057C24.6667 8.20831 23.2849 7.33301 21.7714 6.75702C20.2579 6.18103 18.6438 5.91618 17.0256 5.97832C10.5861 6.22715 5.45098 11.5906 5.46876 18.0342C5.47493 20.9675 6.55679 23.7967 8.50938 25.9857C9.30457 24.8324 10.3147 23.8432 11.4844 23.0723C11.5841 23.0064 11.7027 22.975 11.8219 22.9829C11.9412 22.9908 12.0546 23.0376 12.1447 23.116C13.6311 24.4017 15.5307 25.1092 17.4959 25.1092C19.4611 25.1092 21.3607 24.4017 22.8471 23.116C22.9372 23.0376 23.0506 22.9908 23.1699 22.9829C23.2891 22.975 23.4077 23.0064 23.5074 23.0723C24.6786 23.8428 25.6901 24.832 26.4865 25.9857C28.4488 23.7887 29.5327 20.9457 29.5313 18Z" fill="url(#paint0_linear_2294_1441)"/>
<defs>
<linearGradient id="paint0_linear_2294_1441" x1="17.5" y1="3.78125" x2="17.5" y2="32.2188" gradientUnits="userSpaceOnUse">
<stop stop-color="#7B2ABC"/>
<stop offset="1" stop-color="#D901A9"/>
</linearGradient>
</defs>
</svg>
