<svg width="39" height="31" viewBox="0 0 39 31" fill="none" xmlns="http://www.w3.org/2000/svg">
<path d="M22.8488 15.5884C22.8488 13.2917 22.8423 10.9949 22.8507 8.6991C22.8572 6.95512 24.1032 5.45375 25.7136 5.22255C27.5357 4.96091 29.1405 5.99607 29.6379 7.75623C29.7335 8.09304 29.7757 8.43841 29.7757 8.78758C29.7785 13.3488 29.7831 17.9109 29.7738 22.4721C29.77 24.2351 28.6524 25.6565 27.0242 26.0181C25.4935 26.3587 23.8999 25.5738 23.1898 24.1323C22.9331 23.611 22.8432 23.0591 22.8441 22.4787C22.8507 20.182 22.8469 17.8852 22.8469 15.5894L22.8488 15.5884Z" fill="url(#paint0_linear_5908_3064)"/>
<path d="M32.0408 15.6208C32.0277 14.8758 32.0184 14.1384 32.3275 13.4305C32.9805 11.9368 34.5918 11.09 36.22 11.4126C37.7545 11.717 38.9621 13.1594 38.9742 14.753C38.9799 15.5104 39.0586 16.2734 38.9096 17.027C38.5461 18.8651 36.9844 20.0335 35.1155 19.867C33.4283 19.7167 32.0896 18.221 32.0418 16.4285C32.0343 16.1593 32.0408 15.89 32.0418 15.6208H32.0408Z" fill="url(#paint1_linear_5908_3064)"/>
<path d="M19.1382 15.4913C19.1382 10.5486 19.1363 5.60589 19.1438 0.663177C19.1438 0.411046 19.0033 -0.00377974 19.437 2.60031e-05C19.8436 0.00383175 19.6947 0.404387 19.6947 0.640343C19.7022 10.5572 19.7012 20.4749 19.7003 30.3917C19.7003 30.5183 19.7012 30.6458 19.6881 30.7714C19.6731 30.9179 19.5822 30.994 19.437 30.9997C19.2918 31.0054 19.1869 30.9255 19.1616 30.7923C19.1326 30.6391 19.1391 30.4774 19.1391 30.3194C19.1391 25.3767 19.1391 20.434 19.1391 15.4913H19.1382Z" fill="url(#paint2_linear_5908_3064)"/>
<path fill-rule="evenodd" clip-rule="evenodd" d="M12.0069 5.27005C13.4721 4.88472 15.0413 5.58211 15.8357 6.97121C16.157 7.53351 16.2891 8.14815 16.2891 8.79037C16.2919 13.3525 16.2957 17.9156 16.2891 22.4777C16.2863 24.3292 14.9888 25.8629 13.3006 26.0513C11.442 26.2587 9.86628 25.1655 9.43534 23.3711C9.3604 23.06 9.36133 22.7431 9.36133 22.4263C9.36039 20.1609 9.36133 17.8956 9.36133 15.6302C9.36133 13.3173 9.35293 11.0043 9.36417 8.69141C9.3726 7.01498 10.4078 5.69059 12.0069 5.27005ZM15.8135 8.70201C15.8004 6.56508 13.7815 5.12839 11.846 5.80486C10.586 6.24538 9.82806 7.36713 9.82151 8.84946C9.8112 11.0996 9.81876 13.3507 9.81876 15.6008V15.6018C9.81876 17.8205 9.8178 20.0393 9.81968 22.258C9.81968 22.6053 9.81403 22.9545 9.89927 23.297C10.2862 24.8469 11.6352 25.7641 13.2587 25.5804C14.6705 25.4206 15.8069 24.1447 15.8144 22.5854C15.8369 17.9576 15.8435 13.3298 15.8135 8.70201Z" fill="url(#paint3_linear_5908_3064)"/>
<path fill-rule="evenodd" clip-rule="evenodd" d="M0.100272 14.1297C0.46096 12.4181 2.07511 11.1737 3.72203 11.3364C5.5713 11.5191 6.91565 12.9462 6.95781 14.7748C6.96437 15.0603 6.95872 15.3448 6.95872 15.7092V15.7101C6.99057 16.4427 6.96625 17.24 6.57841 17.9897C5.85238 19.3912 4.24475 20.1675 2.7552 19.8108C1.16075 19.4283 0.0403145 18.0725 0.0262599 16.4513C0.0197021 15.6778 -0.0617975 14.8985 0.100272 14.1297ZM3.71325 11.813C2.34926 11.6437 0.937496 12.6836 0.58149 14.1203C0.395063 14.87 0.49901 15.6331 0.493389 16.3895C0.483091 17.8195 1.46682 19.0326 2.85611 19.356C4.1817 19.6643 5.5963 18.9517 6.20991 17.691C6.48942 17.1166 6.50212 16.5152 6.49653 15.9079L6.4937 15.6493C6.4937 15.3638 6.49932 15.0784 6.4937 14.7939C6.46277 13.2155 5.34143 12.0147 3.71325 11.813Z" fill="url(#paint4_linear_5908_3064)"/>
<defs>
<linearGradient id="paint0_linear_5908_3064" x1="19.5" y1="0" x2="19.5" y2="31" gradientUnits="userSpaceOnUse">
<stop stop-color="#DA00A9"/>
<stop offset="1" stop-color="#7E3EC8"/>
</linearGradient>
<linearGradient id="paint1_linear_5908_3064" x1="19.5" y1="0" x2="19.5" y2="31" gradientUnits="userSpaceOnUse">
<stop stop-color="#DA00A9"/>
<stop offset="1" stop-color="#7E3EC8"/>
</linearGradient>
<linearGradient id="paint2_linear_5908_3064" x1="19.5" y1="0" x2="19.5" y2="31" gradientUnits="userSpaceOnUse">
<stop stop-color="#DA00A9"/>
<stop offset="1" stop-color="#7E3EC8"/>
</linearGradient>
<linearGradient id="paint3_linear_5908_3064" x1="19.5" y1="0" x2="19.5" y2="31" gradientUnits="userSpaceOnUse">
<stop stop-color="#DA00A9"/>
<stop offset="1" stop-color="#7E3EC8"/>
</linearGradient>
<linearGradient id="paint4_linear_5908_3064" x1="19.5" y1="0" x2="19.5" y2="31" gradientUnits="userSpaceOnUse">
<stop stop-color="#DA00A9"/>
<stop offset="1" stop-color="#7E3EC8"/>
</linearGradient>
</defs>
</svg>
